<svg class="injected-svg" id="svg-4d26a041-03f4-4be0-9753-b223bd2c5d93" height="100%" width="100%" viewBox="0 0 540 508" xmlns="http://www.w3.org/2000/svg"><g xmlns="http://www.w3.org/2000/svg" fill="#ffffff" id="icon-svg">
	<path transform="translate(61, 194) scale(0.6,0.6)" d="M 90 31.027 C 76.764 33.783, 62.087 45.093, 56.413 56.909 L 53.500 62.974 46.372 62.987 C 41.269 62.996, 38.891 63.426, 38 64.500 C 35.651 67.330, 38.524 69, 45.739 69 C 51.986 69, 52.210 69.086, 51.630 71.250 C 51.299 72.487, 51.021 74.063, 51.014 74.750 C 50.992 76.757, 35.397 76.476, 34.621 74.455 C 33.684 72.013, 27.532 69.847, 24.649 70.943 C 18.944 73.112, 17.247 80.338, 21.455 84.545 C 24.828 87.919, 30.263 87.898, 33.412 84.500 C 35.488 82.261, 36.513 82, 43.240 82 L 50.750 82 51.375 85.125 C 51.719 86.844, 52 88.644, 52 89.125 C 52 89.606, 47.590 90, 42.200 90 C 35.911 90, 31.970 90.430, 31.200 91.200 C 30.540 91.860, 30 94.158, 30 96.306 C 30 99.013, 29.233 101.123, 27.500 103.182 C 24.194 107.112, 24.324 110.478, 27.923 114.077 C 31.716 117.870, 35.284 117.870, 39.077 114.077 C 42.676 110.478, 42.806 107.112, 39.500 103.182 C 38.125 101.548, 37 99.264, 37 98.106 C 37 96.131, 37.525 96, 45.441 96 L 53.883 96 57.087 102.013 C 60.822 109.020, 68.183 116.851, 74.533 120.572 L 79 123.190 79 132.595 C 79 141.491, 78.886 142, 76.894 142 C 75.736 142, 73.943 140.926, 72.910 139.612 C 67.628 132.897, 56.388 138.442, 58.470 146.736 C 60.051 153.034, 67.920 155.170, 72.536 150.555 C 74.306 148.785, 76.294 148.026, 79.740 147.805 L 84.500 147.500 84.784 136.750 C 85.078 125.624, 85.343 125.043, 89.418 126.607 C 90.748 127.117, 91 129.277, 91 140.155 C 91 152.974, 90.975 153.118, 88.300 155.418 C 82.599 160.322, 86.450 170, 94.101 170 C 101.158 170, 104.738 160.442, 99.500 155.588 C 97.087 153.352, 97 152.829, 97 140.635 L 97 128 100 128 C 102.917 128, 103 128.132, 103 132.809 C 103 138.725, 105.036 142.017, 107.691 140.396 C 109.081 139.547, 109.568 137.778, 109.793 132.754 C 110.064 126.708, 110.271 126.181, 112.543 125.747 L 115 125.277 115 135.439 C 115 142.009, 115.424 146.024, 116.200 146.800 C 116.860 147.460, 119.315 148, 121.655 148 C 124.859 148, 126.526 148.617, 128.409 150.500 C 134.952 157.043, 145.813 149.340, 141.582 141.158 C 138.773 135.726, 131.905 135.101, 127.595 139.885 C 126.547 141.048, 124.860 142, 123.845 142 C 122.176 142, 122 141.057, 122 132.142 L 122 122.283 127.468 118.653 C 133.394 114.718, 140.044 107.003, 143.330 100.250 L 145.399 96 154.199 96 C 161.436 96, 163 96.272, 163 97.531 C 163 98.374, 162.308 99.328, 161.463 99.653 C 160.618 99.977, 159.258 101.534, 158.442 103.113 C 154.264 111.192, 165.099 118.992, 171.545 112.545 C 174.855 109.236, 174.858 104.155, 171.551 101.048 C 169.879 99.477, 169.007 97.441, 168.801 94.624 L 168.500 90.500 157.656 90.215 C 148.353 89.971, 146.897 89.711, 147.406 88.383 C 147.733 87.533, 148 85.748, 148 84.418 C 148 82.067, 148.216 82, 155.826 82 C 162.880 82, 163.883 82.246, 166 84.500 C 171.129 89.959, 180 86.386, 180 78.860 C 180 71.436, 171.642 68.095, 166.174 73.333 C 163.651 75.750, 162.669 76, 155.695 76 L 148 76 148 72.546 L 148 69.091 154.750 68.796 C 161.204 68.513, 161.500 68.391, 161.500 66 C 161.500 63.573, 161.273 63.491, 153.743 63.208 L 145.986 62.916 143.085 57.168 C 137.385 45.877, 127.331 37.080, 115.419 32.963 C 108.566 30.593, 96.494 29.674, 90 31.027 M 90.942 39.393 C 87.426 41.783, 82 48.639, 82 50.692 C 82 51.732, 83.240 52.058, 92.750 53.522 L 97 54.176 97 45.588 C 97 35.949, 96.605 35.545, 90.942 39.393 M 103 45.588 L 103 54.176 107.250 53.522 C 116.552 52.091, 118 51.746, 118 50.966 C 118 48.122, 106.733 37, 103.852 37 C 103.383 37, 103 40.865, 103 45.588 M 75.255 44.250 C 71.959 46.555, 71.531 48.280, 74.131 48.784 C 74.980 48.949, 76.306 47.582, 77.282 45.534 C 78.209 43.591, 78.856 42, 78.720 42 C 78.583 42, 77.024 43.013, 75.255 44.250 M 122.133 45.500 C 124.333 49.229, 124.737 49.453, 126.851 48.113 C 127.880 47.461, 127.381 46.629, 124.757 44.628 C 120.183 41.139, 119.662 41.312, 122.133 45.500 M 63.849 56.252 C 60.949 60.898, 58.400 67.804, 57.851 72.500 C 57.501 75.491, 57.517 75.501, 63.129 75.796 L 68.758 76.093 69.434 70.680 C 69.806 67.703, 70.717 62.968, 71.458 60.158 L 72.806 55.050 69.749 53.525 C 68.068 52.686, 66.649 52.001, 66.596 52.002 C 66.543 52.003, 65.307 53.915, 63.849 56.252 M 129.655 53.639 C 127.432 54.830, 126.948 55.638, 127.440 57.332 C 127.787 58.524, 128.605 63.212, 129.257 67.750 L 130.443 76 136.309 76 L 142.176 76 141.507 71.750 C 140.825 67.420, 136.332 56.871, 133.864 53.807 C 132.623 52.267, 132.244 52.252, 129.655 53.639 M 78.460 58.401 C 77.341 61.804, 76.089 68.012, 75.818 71.500 L 75.507 75.500 86.004 75.500 L 96.500 75.500 96.792 67.750 L 97.084 60 94.292 59.979 C 92.756 59.968, 88.647 59.361, 85.161 58.630 C 80.641 57.683, 78.718 57.618, 78.460 58.401 M 115 58.654 C 111.975 59.288, 108.037 59.851, 106.250 59.904 L 103 60 103 68 L 103 76 113.615 76 L 124.230 76 123.537 70.449 C 123.155 67.395, 122.316 63.233, 121.672 61.199 L 120.500 57.500 115 58.654 M 24.494 77.009 C 23.432 78.727, 25.039 82, 26.945 82 C 29.339 82, 31.191 79.662, 30.410 77.627 C 29.725 75.842, 25.489 75.400, 24.494 77.009 M 169.389 77.430 C 168.393 80.025, 169.788 82.169, 172.246 81.820 C 173.898 81.585, 174.500 80.833, 174.500 79 C 174.500 77.167, 173.898 76.415, 172.246 76.180 C 170.893 75.988, 169.750 76.488, 169.389 77.430 M 57.358 83.750 C 57.629 84.713, 58.165 87.075, 58.549 89 C 59.317 92.843, 64.396 103.509, 65.903 104.440 C 66.424 104.762, 68.047 104.480, 69.509 103.814 C 71.617 102.853, 72.072 102.073, 71.705 100.051 C 71.450 98.648, 70.682 94.013, 69.999 89.750 L 68.757 82 62.811 82 C 57.627 82, 56.928 82.224, 57.358 83.750 M 75.571 85.250 C 77.372 96.481, 78.369 100.073, 79.560 99.616 C 80.255 99.349, 84.464 98.573, 88.912 97.892 L 97 96.654 97 89.327 L 97 82 86.025 82 L 75.050 82 75.571 85.250 M 103 89.363 L 103 96.726 110.686 97.965 C 114.913 98.647, 118.920 99.416, 119.590 99.673 C 120.396 99.982, 121.348 97.766, 122.404 93.123 C 125.091 81.310, 125.643 82, 113.500 82 L 103 82 103 89.363 M 129.259 89.750 C 128.615 94.013, 127.816 98.625, 127.484 100 C 126.974 102.107, 127.377 102.717, 130.049 103.882 C 133.613 105.436, 133.468 105.546, 137.191 98.500 C 139.204 94.692, 141.963 85.920, 141.988 83.250 C 141.996 82.393, 140.183 82, 136.215 82 L 130.429 82 129.259 89.750 M 89 104.174 C 85.425 104.684, 82.146 105.455, 81.713 105.888 C 80.365 107.234, 87.285 116.066, 91.750 118.698 L 96 121.203 96 112.102 C 96 107.096, 95.888 103.056, 95.750 103.123 C 95.612 103.191, 92.575 103.664, 89 104.174 M 103 112.139 C 103 121.864, 103.152 121.997, 109.369 117.685 C 112.728 115.354, 118.344 106.936, 117.252 105.868 C 116.838 105.464, 113.463 104.730, 109.750 104.238 L 103 103.342 103 112.139 M 163 106.375 C 163 109.375, 164.291 110.360, 167.067 109.479 C 170.211 108.481, 169.242 104.585, 165.750 104.184 C 163.397 103.913, 163 104.229, 163 106.375 M 31.046 106.444 C 28.345 109.699, 32.815 113.614, 35.811 110.618 C 37.084 109.344, 37.215 108.563, 36.376 107.231 C 34.916 104.913, 32.601 104.571, 31.046 106.444 M 72.750 108.689 C 70.090 109.384, 70.615 110.479, 75 113.381 C 77.200 114.837, 79 115.823, 79 115.571 C 79 115.028, 74.870 107.948, 74.651 108.116 C 74.568 108.180, 73.713 108.438, 72.750 108.689 M 122.091 112.263 C 119.787 116.266, 120.121 116.319, 125.250 112.768 C 128.451 110.551, 128.716 109.421, 126.190 108.760 C 124.884 108.418, 123.742 109.395, 122.091 112.263 M 63.591 143.623 C 62.613 146.173, 65.526 148.789, 67.769 147.374 C 68.721 146.773, 69.500 145.431, 69.500 144.391 C 69.500 141.818, 64.531 141.173, 63.591 143.623 M 131.389 143.430 C 130.393 146.025, 131.788 148.169, 134.246 147.820 C 135.898 147.585, 136.500 146.833, 136.500 145 C 136.500 143.167, 135.898 142.415, 134.246 142.180 C 132.893 141.988, 131.750 142.488, 131.389 143.430 M 92.250 158.667 C 90.457 159.384, 90.706 163.950, 92.578 164.668 C 94.946 165.577, 97.737 162.391, 96.412 160.291 C 95.215 158.394, 94.059 157.943, 92.250 158.667" stroke="none" fill-rule="evenodd"></path>
</g><path xmlns="http://www.w3.org/2000/svg" id="SvgjsPath128445126" d="M8.30-7.89L8.30-50.22L1.66-50.22L1.66-58.10L23.66-58.10Q27.56-58.10 30.88-56.69Q34.20-55.28 36.64-52.83Q39.09-50.38 40.50-47.06Q41.91-43.74 41.91-39.84L41.91-39.84L41.91-18.26Q41.91-14.36 40.50-11.04Q39.09-7.72 36.64-5.27Q34.20-2.82 30.88-1.41Q27.56 0 23.66 0L23.66 0L1.66 0L1.66-7.89L8.30-7.89ZM16.19-50.22L16.19-7.89L23.66-7.89Q25.81-7.89 27.72-8.67Q29.63-9.46 31.04-10.87Q32.45-12.28 33.24-14.19Q34.03-16.10 34.03-18.26L34.03-18.26L34.03-39.84Q34.03-42.00 33.24-43.91Q32.45-45.82 31.04-47.23Q29.63-48.64 27.72-49.43Q25.81-50.22 23.66-50.22L23.66-50.22L16.19-50.22ZM53.54-18.26L53.54-39.84Q53.54-43.91 54.99-47.39Q56.44-50.88 59.01-53.45Q61.59-56.03 65.07-57.48Q68.56-58.93 72.63-58.93L72.63-58.93Q76.69-58.93 80.18-57.48Q83.66-56.03 86.24-53.45Q88.81-50.88 90.26-47.39Q91.72-43.91 91.72-39.84L91.72-39.84L91.72-18.26Q91.72-14.19 90.26-10.71Q88.81-7.22 86.24-4.65Q83.66-2.08 80.18-0.62Q76.69 0.83 72.63 0.83L72.63 0.83Q68.56 0.83 65.07-0.62Q61.59-2.08 59.01-4.65Q56.44-7.22 54.99-10.71Q53.54-14.19 53.54-18.26L53.54-18.26ZM83.83-18.26L83.83-39.84Q83.83-42.16 82.96-44.20Q82.09-46.23 80.55-47.77Q79.02-49.30 76.98-50.17Q74.95-51.05 72.63-51.05L72.63-51.05Q70.30-51.05 68.27-50.17Q66.23-49.30 64.70-47.77Q63.16-46.23 62.29-44.20Q61.42-42.16 61.42-39.84L61.42-39.84L61.42-18.26Q61.42-15.94 62.29-13.90Q63.16-11.87 64.70-10.33Q66.23-8.80 68.27-7.93Q70.30-7.06 72.63-7.06L72.63-7.06Q74.95-7.06 76.98-7.93Q79.02-8.80 80.55-10.33Q82.09-11.87 82.96-13.90Q83.83-15.94 83.83-18.26L83.83-18.26ZM132.80-41.50L132.80-41.50Q132.80-45.23 130.31-47.73Q127.82-50.22 124.09-50.22L124.09-50.22L98.36-50.22L98.36-58.10L124.09-58.10Q127.49-58.10 130.52-56.77Q133.55-55.44 135.79-53.20Q138.03-50.96 139.36-47.93Q140.69-44.90 140.69-41.50L140.69-41.50Q140.69-38.10 139.36-35.07Q138.03-32.04 135.79-29.80Q133.55-27.56 130.52-26.23Q127.49-24.90 124.09-24.90L124.09-24.90L112.88-24.90L112.88 0L105.00 0L105.00-32.79L124.09-32.79Q127.82-32.79 130.31-35.27Q132.80-37.77 132.80-41.50Z" fill="#ffffff" fontsize="83" transform="matrix(1,0,0,1,188.34,281.05)"></path></svg>