<svg xmlns="http://www.w3.org/2000/svg" xmlns:xlink="http://www.w3.org/1999/xlink" version="1.1" id="Layer_1" x="0px" y="0px" viewBox="0 0 303.0596924 315" style="enable-background:new 0 0 303.0596924 315;" xml:space="preserve">
      <style type="text/css">.st0{fill:url(#SVGID_1_);}</style>
    <g id="color_index_g">
              <linearGradient id="SVGID_1_" gradientUnits="userSpaceOnUse" x1="0" y1="158.5100403" x2="303.0596924" y2="158.5100403" gradientTransform="matrix(1 0 0 -1 0 316.0100403)">
                      <stop offset="0" style="stop-color:rgba(57, 92, 241, 1)"/>
            <stop offset="1" style="stop-color:rgba(2, 215, 225, 1)"/>
                  </linearGradient>
        <path class="st0" d="M276.8488159,202.1064453c-3.3800964,0-6.5602112,0.8800354-9.3302917,2.41008&#9;&#9;c-6.5401917-11.7003632-13.1904144-23.3307495-19.8406219-34.9711151&#9;&#9;c-3.0000916-5.170166-6.0101776-10.3403168-9.0202789-15.5104828c3.0000916-5.1601715,6.0101776-10.3203278,9.0102692-15.490509&#9;&#9;c5.5101776-9.6403046,11.02034-19.2806091,16.480545-28.9609146c3.7701111,2.1000671,8.0902405,3.3001099,12.7004089,3.3001099&#9;&#9;c14.45047,0,26.2108459-11.7603836,26.2108459-26.2108383s-11.7604065-26.2108345-26.2108459-26.2108345&#9;&#9;c-14.45047,0-26.2108154,11.7603798-26.2108154,26.2108345c0,8.9402847,4.5001373,16.8305359,11.3503723,21.5706863&#9;&#9;c-6.2402191,9.1903-12.4304047,18.4105835-18.6206055,27.6408768c-2.710083,4.0901184-5.4101715,8.2002563-8.1202545,12.3003998&#9;&#9;c-5.8401794-10.0103149-11.7003632-20.0006409-17.6305542-29.9509583&#9;&#9;c-10.0303192-17.1005402-20.40065-33.9910889-30.6009827-50.9816208l-21.3706818-34.8211098&#9;&#9;c3.2101135-3.4501114,5.1901703-8.0502567,5.1901703-13.1204166C170.8354492,8.6602755,162.1751709,0,151.5248413,0&#9;&#9;c-10.6503448,0-19.3106232,8.6602755-19.3106232,19.3106155c0,5.0701599,1.9800568,9.6803074,5.1901703,13.1304169&#9;&#9;l-21.3606796,34.821106c-10.200325,16.9905396-20.5606537,33.8910828-30.5909729,50.9816208&#9;&#9;c-5.930191,9.9503174-11.7903748,19.9406433-17.6305618,29.9409637c-2.710083-4.1001434-5.4101715-8.2102814-8.1202545-12.3003998&#9;&#9;c-6.190197-9.2202988-12.3803978-18.4505844-18.620594-27.6408844&#9;&#9;c6.8402176-4.7301559,11.3403625-12.6304016,11.3403625-21.5606842c0-14.4504547-11.7603722-26.2108345-26.2108345-26.2108345&#9;&#9;S0,72.2323074,0,86.6827621s11.760375,26.2108383,26.2108345,26.2108383c4.6101475,0,8.9302864-1.2000351,12.7004051-3.3001099&#9;&#9;c5.4501762,9.6803055,10.96035,19.3206177,16.4705238,28.960907c3.0000954,5.170166,6.0101929,10.340332,9.0202827,15.510498&#9;&#9;c-3.0000954,5.1601715-6.0101929,10.3203125-9.0102882,15.4904938&#9;&#9;c-6.6502151,11.6303711-13.3004227,23.2607422-19.8506317,34.9611053&#9;&#9;c-2.7700882-1.5400391-5.9501915-2.4200745-9.3302975-2.4200745c-10.6503391,0-19.3106155,8.6602783-19.3106155,19.3106079&#9;&#9;c0,10.6503448,8.6602764,19.3106232,19.3106155,19.3106232s19.3106136-8.6602783,19.3106136-19.3106232&#9;&#9;c0-6.5702057-3.3001022-12.3803864-8.3302612-15.8605042c7.57024-11.0603485,15.0304756-22.2006989,22.5007172-33.3310547&#9;&#9;c2.710083-4.0901337,5.4101677-8.2002563,8.1202583-12.3003998c5.8401871,10.0103149,11.7003708,20.0006409,17.6305618,29.9509583&#9;&#9;c10.0303192,17.1005402,20.40065,33.9910889,30.600975,50.9816132l17.6705551,28.7809296&#9;&#9;c-5.140152,4.7901611-8.3802567,11.5903625-8.3802567,19.160614c0,14.45047,11.7603683,26.2108154,26.2108383,26.2108154&#9;&#9;c14.4504547,0,26.2108307-11.760376,26.2108307-26.2108154c0-7.5702515-3.240097-14.3704529-8.3902588-19.160614&#9;&#9;l17.6605682-28.7909393c10.2003174-16.9905396,20.5606537-33.8910828,30.5909729-50.9816132&#9;&#9;c5.9301758-9.9503174,11.7903595-19.9406433,17.6305542-29.9409637c2.7100983,4.1001434,5.4101868,8.2102661,8.1202545,12.3003998&#9;&#9;c7.4702454,11.1303558,14.9304962,22.2606964,22.5107269,33.3210602&#9;&#9;c-5.0201721,3.4901276-8.3302612,9.2902985-8.3302612,15.8605042c0,10.6503448,8.6602783,19.3106232,19.3106079,19.3106232&#9;&#9;s19.3106079-8.6602783,19.3106079-19.3106232C296.1594238,210.7667084,287.4991455,202.1064453,276.8488159,202.1064453z&#9;&#9; M210.7667084,185.6259155c-10.8503418,16.5905151-21.3806763,33.3810577-32.0610199,50.0715942l-17.9305725,28.6109009&#9;&#9;c-2.8800964-1.0900269-5.9902039-1.7200623-9.2502899-1.7200623c-3.2601013,0-6.3602142,0.6200256-9.2403107,1.7100525&#9;&#9;l-17.9205627-28.6109161c-10.6903458-16.6905365-21.2106781-33.4810638-32.0610199-50.071579&#9;&#9;c-6.8102188-10.5603333-13.7004395-21.0806732-20.6206665-31.5810089&#9;&#9;c6.9102173-10.4903412,13.8004456-21.0006714,20.6006622-31.5610046&#9;&#9;c10.8503418-16.5905304,21.3806763-33.381073,32.0610123-50.0716019l21.6807022-34.6010971&#9;&#9;c1.7400665,0.5200157,3.5801239,0.8100281,5.4901733,0.8100281c1.9100647,0,3.7501221-0.2900124,5.4901886-0.8100281&#9;&#9;l21.6806793,34.6010971c10.6903534,16.6905365,21.2106781,33.4810715,32.0610199,50.0716019&#9;&#9;c6.8102112,10.5603333,13.7004395,21.0806732,20.6206512,31.5810089&#9;&#9;C224.4571533,164.5652466,217.5769348,175.0655823,210.7667084,185.6259155z"/>
          </g>
  </svg>